<svg width="362" height="208" viewBox="0 0 362 208" fill="none" xmlns="http://www.w3.org/2000/svg">
<path d="M240.8 192.855V194.717C240.379 194.47 239.932 194.283 239.458 194.156C238.984 194.023 238.49 193.956 237.976 193.956C236.694 193.956 235.723 194.44 235.062 195.408C234.401 196.369 234.071 197.788 234.071 199.664C234.391 198.996 234.835 198.485 235.403 198.132C235.97 197.771 236.621 197.591 237.355 197.591C238.797 197.591 239.912 198.035 240.7 198.923C241.494 199.804 241.891 201.055 241.891 202.678C241.891 204.293 241.484 205.545 240.67 206.433C239.855 207.32 238.71 207.764 237.235 207.764C235.499 207.764 234.228 207.143 233.42 205.902C232.612 204.654 232.208 202.691 232.208 200.014C232.208 197.491 232.692 195.568 233.66 194.247C234.635 192.918 236.043 192.254 237.886 192.254C238.38 192.254 238.874 192.307 239.368 192.414C239.862 192.514 240.339 192.661 240.8 192.855ZM237.195 199.173C236.334 199.173 235.656 199.483 235.162 200.104C234.668 200.725 234.421 201.583 234.421 202.678C234.421 203.772 234.668 204.63 235.162 205.251C235.656 205.872 236.334 206.182 237.195 206.182C238.09 206.182 238.764 205.889 239.218 205.301C239.672 204.707 239.899 203.832 239.899 202.678C239.899 201.516 239.672 200.642 239.218 200.054C238.764 199.467 238.09 199.173 237.195 199.173Z" fill="#222222"></path>
<path d="M220.593 192.524H228.163V194.226H222.436V197.901C222.723 197.794 223.01 197.718 223.297 197.671C223.59 197.618 223.884 197.591 224.178 197.591C225.727 197.591 226.955 198.048 227.863 198.963C228.771 199.877 229.225 201.115 229.225 202.678C229.225 204.253 228.747 205.495 227.793 206.402C226.845 207.31 225.546 207.764 223.898 207.764C223.103 207.764 222.376 207.711 221.715 207.604C221.06 207.497 220.473 207.337 219.952 207.123V205.071C220.566 205.404 221.184 205.655 221.805 205.822C222.426 205.982 223.06 206.062 223.707 206.062C224.822 206.062 225.68 205.768 226.281 205.181C226.888 204.593 227.192 203.759 227.192 202.678C227.192 201.609 226.878 200.778 226.251 200.184C225.63 199.59 224.762 199.293 223.647 199.293C223.106 199.293 222.579 199.356 222.065 199.483C221.551 199.603 221.06 199.787 220.593 200.034V192.524Z" fill="#222222"></path>
<path d="M212.132 200.845C212.993 200.845 213.667 200.535 214.155 199.914C214.649 199.293 214.896 198.435 214.896 197.341C214.896 196.246 214.649 195.388 214.155 194.767C213.667 194.146 212.993 193.836 212.132 193.836C211.238 193.836 210.563 194.133 210.109 194.727C209.655 195.315 209.428 196.186 209.428 197.341C209.428 198.502 209.652 199.377 210.099 199.964C210.553 200.551 211.231 200.845 212.132 200.845ZM208.527 207.164V205.301C208.948 205.548 209.395 205.738 209.869 205.872C210.343 205.999 210.837 206.062 211.351 206.062C212.633 206.062 213.601 205.581 214.255 204.62C214.916 203.652 215.246 202.23 215.246 200.355C214.932 201.022 214.492 201.536 213.924 201.897C213.357 202.25 212.706 202.427 211.972 202.427C210.53 202.427 209.412 201.983 208.617 201.096C207.83 200.208 207.436 198.949 207.436 197.321C207.436 195.712 207.84 194.467 208.647 193.586C209.462 192.698 210.61 192.254 212.092 192.254C213.828 192.254 215.099 192.878 215.907 194.126C216.715 195.375 217.119 197.337 217.119 200.014C217.119 202.531 216.631 204.453 215.657 205.782C214.689 207.103 213.28 207.764 211.431 207.764C210.944 207.764 210.453 207.711 209.959 207.604C209.465 207.504 208.988 207.357 208.527 207.164Z" fill="#222222"></path>
<path d="M196.511 205.782H199.656V194.487L195.891 196.299V194.357L199.636 192.574H201.658V205.782H204.762V207.474H196.511V205.782Z" fill="#222222"></path>
<path d="M172.991 203.428H176.515V207.474H172.991V203.428Z" fill="#222222"></path>
<path d="M157.21 192.524H168.615V194.226H163.939V207.474H161.906V194.226H157.21V192.524Z" fill="#222222"></path>
<path d="M154.516 193.035V195.088C153.902 194.694 153.285 194.397 152.664 194.196C152.05 193.996 151.429 193.896 150.801 193.896C149.847 193.896 149.093 194.12 148.538 194.567C147.984 195.008 147.707 195.605 147.707 196.359C147.707 197.02 147.888 197.524 148.248 197.871C148.615 198.218 149.296 198.509 150.291 198.742L151.352 198.983C152.754 199.31 153.775 199.824 154.416 200.525C155.057 201.226 155.377 202.18 155.377 203.389C155.377 204.81 154.937 205.895 154.056 206.643C153.175 207.39 151.893 207.764 150.211 207.764C149.51 207.764 148.805 207.688 148.098 207.534C147.39 207.387 146.679 207.164 145.965 206.863V204.71C146.733 205.198 147.457 205.555 148.138 205.782C148.826 206.009 149.516 206.122 150.211 206.122C151.232 206.122 152.026 205.895 152.594 205.441C153.161 204.981 153.445 204.34 153.445 203.519C153.445 202.771 153.248 202.2 152.854 201.806C152.467 201.413 151.789 201.109 150.821 200.895L149.74 200.645C148.352 200.331 147.344 199.857 146.716 199.223C146.089 198.589 145.775 197.738 145.775 196.67C145.775 195.335 146.222 194.267 147.117 193.465C148.018 192.658 149.213 192.254 150.701 192.254C151.275 192.254 151.88 192.321 152.514 192.454C153.148 192.581 153.815 192.775 154.516 193.035Z" fill="#222222"></path>
<path d="M133.999 192.524H142.871V194.226H136.022V198.252H142.571V199.954H136.022V205.772H143.061V207.474H133.999V192.524Z" fill="#222222"></path>
<path d="M271.069 31.2703H279.37V32.9725H276.236V44.5177H279.37V46.2199H271.069V44.5177H274.204V32.9725H271.069V31.2703Z" fill="#222222"></path>
<path d="M264.311 39.1606C264.831 39.2941 265.275 39.5478 265.642 39.9216C266.009 40.2888 266.467 41.0264 267.014 42.1345L269.047 46.2199H266.874L265.092 42.445C264.578 41.3702 264.114 40.6793 263.7 40.3722C263.293 40.0585 262.758 39.9016 262.098 39.9016H260.165V46.2199H258.132V31.2703H262.298C263.94 31.2703 265.198 31.6408 266.073 32.3817C266.947 33.1227 267.385 34.1941 267.385 35.596C267.385 36.5839 267.114 37.3916 266.573 38.0191C266.039 38.64 265.285 39.0205 264.311 39.1606ZM260.165 32.9324V38.2394H262.378C263.346 38.2394 264.067 38.0225 264.541 37.5886C265.015 37.1547 265.252 36.4905 265.252 35.596C265.252 34.7348 264.998 34.0773 264.491 33.6234C263.99 33.1628 263.259 32.9324 262.298 32.9324H260.165Z" fill="#222222"></path>
<path d="M246.317 31.2703H255.188V32.9725H248.339V36.9978H254.888V38.7H248.339V44.5177H255.379V46.2199H246.317V31.2703Z" fill="#222222"></path>
<path d="M242.121 31.781V33.8337C241.507 33.4399 240.89 33.1428 240.269 32.9426C239.655 32.7423 239.034 32.6422 238.406 32.6422C237.452 32.6422 236.698 32.8658 236.143 33.313C235.589 33.7536 235.312 34.3511 235.312 35.1054C235.312 35.7663 235.493 36.2703 235.853 36.6174C236.22 36.9645 236.901 37.2549 237.896 37.4885L238.957 37.7288C240.359 38.0559 241.38 38.57 242.021 39.2709C242.662 39.9718 242.982 40.9264 242.982 42.1346C242.982 43.5565 242.542 44.6413 241.661 45.3889C240.78 46.1366 239.498 46.5104 237.816 46.5104C237.115 46.5104 236.41 46.4336 235.703 46.2801C234.995 46.1332 234.284 45.9096 233.57 45.6092V43.4564C234.338 43.9437 235.062 44.3008 235.743 44.5278C236.431 44.7548 237.121 44.8682 237.816 44.8682C238.837 44.8682 239.631 44.6413 240.199 44.1873C240.766 43.7267 241.05 43.0859 241.05 42.2648C241.05 41.5172 240.853 40.9464 240.459 40.5526C240.072 40.1587 239.394 39.855 238.426 39.6414L237.345 39.391C235.957 39.0773 234.949 38.6033 234.321 37.9692C233.694 37.335 233.38 36.4839 233.38 35.4158C233.38 34.0807 233.827 33.0126 234.722 32.2116C235.623 31.4039 236.818 31 238.306 31C238.88 31 239.485 31.0668 240.119 31.2003C240.753 31.3271 241.42 31.5207 242.121 31.781Z" fill="#222222"></path>
<path d="M219.822 31.3203H222.586L228.433 43.5864V31.3203H230.586V46.2199H227.822L221.975 33.9538V46.2199H219.822V31.3203Z" fill="#222222"></path>
<path d="M209.248 31.2703H218.12V32.9725H211.271V36.9978H217.819V38.7H211.271V44.5177H218.31V46.2199H209.248V31.2703Z" fill="#222222"></path>
<path d="M202.529 39.1606C203.05 39.2941 203.494 39.5478 203.861 39.9216C204.228 40.2888 204.685 41.0264 205.233 42.1345L207.265 46.2199H205.093L203.31 42.445C202.796 41.3702 202.332 40.6793 201.918 40.3722C201.511 40.0585 200.977 39.9016 200.316 39.9016H198.384V46.2199H196.351V31.2703H200.517C202.159 31.2703 203.417 31.6408 204.292 32.3817C205.166 33.1227 205.603 34.1941 205.603 35.596C205.603 36.5839 205.333 37.3916 204.792 38.0191C204.258 38.64 203.504 39.0205 202.529 39.1606ZM198.384 32.9324V38.2394H200.597C201.565 38.2394 202.286 38.0225 202.76 37.5886C203.234 37.1547 203.47 36.4905 203.47 35.596C203.47 34.7348 203.217 34.0773 202.709 33.6234C202.209 33.1628 201.478 32.9324 200.517 32.9324H198.384Z" fill="#222222"></path>
<path d="M190.173 39.1606C190.694 39.2941 191.138 39.5478 191.505 39.9216C191.872 40.2888 192.329 41.0264 192.877 42.1345L194.909 46.2199H192.736L190.954 42.445C190.44 41.3702 189.976 40.6793 189.562 40.3722C189.155 40.0585 188.621 39.9016 187.96 39.9016H186.028V46.2199H183.995V31.2703H188.16C189.803 31.2703 191.061 31.6408 191.935 32.3817C192.81 33.1227 193.247 34.1941 193.247 35.596C193.247 36.5839 192.977 37.3916 192.436 38.0191C191.902 38.64 191.148 39.0205 190.173 39.1606ZM186.028 32.9324V38.2394H188.241C189.208 38.2394 189.929 38.0225 190.403 37.5886C190.877 37.1547 191.114 36.4905 191.114 35.596C191.114 34.7348 190.861 34.0773 190.353 33.6234C189.853 33.1628 189.122 32.9324 188.16 32.9324H186.028Z" fill="#222222"></path>
<path d="M181.832 31.2703V32.9725H178.448V37.3983H181.522V39.1006H178.448V44.5177H182.022V46.2199H176.585V42.3849H173.06L172.049 46.2199H170.207L174.312 31.2703H181.832ZM175.514 32.9725L173.491 40.7027H176.585V32.9725H175.514Z" fill="#222222"></path>
<path d="M158.942 45.6091V43.246C159.549 43.7867 160.177 44.1939 160.824 44.4676C161.472 44.7346 162.143 44.8681 162.837 44.8681C163.792 44.8681 164.456 44.6212 164.83 44.1272C165.21 43.6265 165.4 42.6986 165.4 41.3435V32.9725H161.585V31.2703H167.423V41.3435C167.423 43.226 167.069 44.5577 166.362 45.3388C165.661 46.1198 164.486 46.5103 162.837 46.5103C162.196 46.5103 161.559 46.4369 160.925 46.29C160.29 46.1432 159.63 45.9162 158.942 45.6091Z" fill="#222222"></path>
<path d="M147.827 31.2703H156.629V32.9725H149.86V36.9778H155.998V38.68H149.86V46.2199H147.827V31.2703Z" fill="#222222"></path>
<path d="M137.133 32.9324V38.5498H139.476C140.411 38.5498 141.139 38.3028 141.659 37.8089C142.187 37.3149 142.45 36.624 142.45 35.7361C142.45 34.8483 142.19 34.1607 141.669 33.6734C141.149 33.1794 140.418 32.9324 139.476 32.9324H137.133ZM135.111 31.2703H139.476C141.145 31.2703 142.41 31.6508 143.271 32.4118C144.133 33.1661 144.563 34.2742 144.563 35.7361C144.563 37.2114 144.133 38.3262 143.271 39.0805C142.417 39.8349 141.152 40.212 139.476 40.212H137.133V46.2199H135.111V31.2703Z" fill="#222222"></path>
<path d="M121.142 31.3203H123.846L126.429 38.9103L129.033 31.3203H131.746V46.2199H129.874V33.0526L127.21 40.9029H125.678L123.005 33.0526V46.2199H121.142V31.3203Z" fill="#222222"></path>
<path d="M114.594 33.0526L112.461 40.7027H116.727L114.594 33.0526ZM113.372 31.2703H115.825L120.401 46.2199H118.309L117.207 42.3248H111.97L110.889 46.2199H108.796L113.372 31.2703Z" fill="#222222"></path>
<path d="M100.435 44.5577C102.137 44.5577 103.326 44.1405 104 43.3061C104.674 42.465 105.011 40.9497 105.011 38.7601C105.011 36.5505 104.674 35.0285 104 34.1941C103.332 33.353 102.144 32.9324 100.435 32.9324H99.4738V44.5577H100.435ZM100.475 31.2703C102.758 31.2703 104.44 31.8777 105.522 33.0927C106.603 34.3076 107.144 36.1967 107.144 38.7601C107.144 41.3101 106.603 43.1926 105.522 44.4075C104.44 45.6158 102.758 46.2199 100.475 46.2199H97.4411V31.2703H100.475Z" fill="#222222"></path>
<path d="M226.17 0.320312H228.874L231.457 7.91029L234.061 0.320312H236.774V15.2199H234.902V2.05259L232.238 9.90291H230.706L228.033 2.05259V15.2199H226.17V0.320312Z" fill="#222222"></path>
<path d="M215.466 0.270264H223.767V1.9725H220.633V13.5177H223.767V15.2199H215.466V13.5177H218.6V1.9725H215.466V0.270264Z" fill="#222222"></path>
<path d="M203.07 0.270264H211.942V1.9725H205.093V5.99779H211.641V7.70003H205.093V13.5177H212.132V15.2199H203.07V0.270264Z" fill="#222222"></path>
<path d="M190.113 0.270264H192.146V5.99779H197.683V0.270264H199.716V15.2199H197.683V7.70003H192.146V15.2199H190.113V0.270264Z" fill="#222222"></path>
<path d="M180.751 13.5577C182.453 13.5577 183.641 13.1405 184.315 12.3061C184.99 11.465 185.327 9.94966 185.327 7.76011C185.327 5.55054 184.99 4.02854 184.315 3.19411C183.648 2.353 182.46 1.93245 180.751 1.93245H179.789V13.5577H180.751ZM180.791 0.270264C183.074 0.270264 184.756 0.877729 185.837 2.09266C186.919 3.30759 187.46 5.19674 187.46 7.76011C187.46 10.3101 186.919 12.1926 185.837 13.4075C184.756 14.6158 183.074 15.2199 180.791 15.2199H177.757V0.270264H180.791Z" fill="#222222"></path>
<path d="M164.219 0.320312H166.983L172.83 12.5864V0.320312H174.983V15.2199H172.219L166.372 2.95378V15.2199H164.219V0.320312Z" fill="#222222"></path>
<path d="M160.734 7.7602C160.734 5.56398 160.507 3.99525 160.053 3.05402C159.606 2.11278 158.869 1.64216 157.841 1.64216C156.819 1.64216 156.082 2.11278 155.628 3.05402C155.18 3.99525 154.957 5.56398 154.957 7.7602C154.957 9.94975 155.18 11.5151 155.628 12.4564C156.082 13.3976 156.819 13.8682 157.841 13.8682C158.869 13.8682 159.606 13.401 160.053 12.4664C160.507 11.5252 160.734 9.95643 160.734 7.7602ZM162.847 7.7602C162.847 10.3636 162.433 12.3062 161.605 13.5879C160.784 14.8696 159.529 15.5104 157.841 15.5104C156.152 15.5104 154.897 14.8729 154.076 13.5979C153.254 12.3229 152.844 10.377 152.844 7.7602C152.844 5.15011 153.254 3.20421 154.076 1.92253C154.903 0.640843 156.158 0 157.841 0C159.529 0 160.784 0.640843 161.605 1.92253C162.433 3.20421 162.847 5.15011 162.847 7.7602Z" fill="#222222"></path>
<path d="M146.926 8.16064C147.447 8.29415 147.891 8.54782 148.258 8.92164C148.625 9.28879 149.082 10.0264 149.63 11.1345L151.662 15.2199H149.489L147.707 11.445C147.193 10.3702 146.729 9.6793 146.315 9.37223C145.908 9.05849 145.374 8.90161 144.713 8.90161H142.781V15.2199H140.748V0.270264H144.913C146.556 0.270264 147.814 0.64075 148.688 1.38172C149.563 2.1227 150 3.19411 150 4.59595C150 5.58392 149.73 6.39165 149.189 7.01914C148.655 7.63995 147.901 8.02045 146.926 8.16064ZM142.781 1.93245V7.23943H144.994C145.962 7.23943 146.682 7.02248 147.156 6.58857C147.63 6.15467 147.867 5.49046 147.867 4.59595C147.867 3.73482 147.614 3.07729 147.106 2.62336C146.606 2.16275 145.875 1.93245 144.913 1.93245H142.781Z" fill="#222222"></path>
<path d="M127.43 0.270264H138.835V1.9725H134.159V15.2199H132.127V1.9725H127.43V0.270264Z" fill="#222222"></path>
<path d="M328.549 86.9997C328.677 103.277 361.745 120.324 361.616 144.676C361.488 157.108 352.773 165.823 340.597 165.823C335.086 165.823 329.959 163.901 325.345 160.184L322.525 138.523L323.294 138.395C329.831 154.288 338.546 161.337 345.852 161.337C351.876 161.337 355.464 156.852 355.464 150.828C355.464 133.653 323.294 116.735 323.294 93.0236C323.294 82.642 330.087 74.311 340.341 74.311C344.314 74.311 348.415 75.4646 352.26 77.7716L355.721 74.6955L356.105 74.8237L358.412 96.4842L357.771 96.6124C350.978 83.6673 342.391 78.4124 336.752 78.4124C332.138 78.4124 328.549 81.6166 328.549 86.9997Z" fill="#222222"></path>
<path d="M301.307 75.4646V75.0801H316.175V75.4646C312.33 79.6941 311.048 86.3589 311.048 98.0222V165.567H308.613L277.083 92.2547V133.781C277.083 150.571 278.493 158.774 284.645 164.414V164.798H268.624V164.414C272.597 159.671 273.495 151.853 273.495 140.062V95.7152C273.495 83.0265 271.7 78.2843 268.368 75.4646V75.0801H280.8L307.587 138.011V98.0222C307.587 85.7181 305.409 79.0533 301.307 75.4646Z" fill="#222222"></path>
<path d="M257.855 143.65L258.752 143.778L259.265 164.798H219.789V164.414C224.019 161.081 225.044 157.364 225.044 145.829V93.7927C225.044 82.2575 224.019 78.5406 219.789 75.4646V75.0801H257.214L258.752 92.8955H257.855C253.625 82.8984 246.833 77.3871 239.655 77.3871H234.4V109.429H238.502C245.166 109.429 248.627 107.507 251.19 101.355H251.703V120.964H251.19C248.371 114.684 245.166 112.377 238.502 112.377H234.4V162.235H239.399C249.652 162.235 254.907 158.261 257.855 143.65Z" fill="#222222"></path>
<path d="M205.551 144.419L207.474 150.187C209.909 158.133 212.088 161.85 215.548 164.414V164.798H201.322L196.836 146.854C194.016 135.832 189.787 133.269 181.712 133.269H181.199V145.829C181.199 157.364 182.096 160.825 185.429 164.414V164.798H166.844V164.414C170.818 161.081 172.099 157.364 172.099 145.829V93.7927C172.099 82.2575 170.818 78.5406 166.844 75.4646V75.0801H182.096C197.477 75.0801 210.294 85.2054 210.294 102.124C210.294 115.325 202.347 126.091 192.222 130.449C199.015 131.218 202.732 134.807 205.551 144.419ZM181.199 77.1308V130.962C192.222 130.705 200.809 120.708 200.809 105.2C200.809 90.0758 192.222 77.8998 181.199 77.1308Z" fill="#222222"></path>
<path d="M144.601 75.4646V75.0801H159.469V75.4646C155.624 79.6941 154.342 86.3589 154.342 98.0222V165.567H151.907L120.377 92.2547V133.781C120.377 150.571 121.787 158.774 127.939 164.414V164.798H111.918V164.414C115.891 159.671 116.789 151.853 116.789 140.062V95.7152C116.789 83.0265 114.994 78.2843 111.662 75.4646V75.0801H124.094L150.881 138.011V98.0222C150.881 85.7181 148.703 79.0533 144.601 75.4646Z" fill="#222222"></path>
<path d="M81.0486 166.08C67.5909 166.08 60.5416 156.852 60.5416 140.702V94.049C60.5416 82.5139 59.1318 78.6688 55.6712 75.4646V75.0801H74.1275V75.4646C70.9233 78.797 69.8979 82.5139 69.8979 94.049V135.191C69.8979 153.776 74.8965 160.697 83.7401 160.697C91.1739 160.697 95.4035 154.801 95.4035 142.497V111.48C95.4035 88.1533 92.8401 79.3096 87.5852 75.4646V75.0801H105.144V75.4646C101.171 79.6941 99.633 87.1279 99.633 105.969V141.087C99.633 157.492 92.9682 166.08 81.0486 166.08Z" fill="#222222"></path>
<path d="M14.483 75.0801C34.4773 75.0801 47.935 90.5885 47.935 116.991C47.935 144.291 34.4773 164.798 16.2774 164.798H0V164.414C4.22956 161.081 5.25491 157.364 5.25491 145.829V93.7927C5.25491 82.2575 4.22956 78.5406 0 75.4646V75.0801H14.483ZM19.4816 161.594C28.5816 161.594 38.5787 150.315 38.5787 124.04C38.5787 93.28 27.1717 78.028 14.483 77.3871V150.828C14.483 159.671 16.0211 161.594 19.4816 161.594Z" fill="#222222"></path>
</svg>