<svg width="324" height="157" viewBox="0 0 324 157" fill="none" xmlns="http://www.w3.org/2000/svg">
<g clip-path="url(#clip0_126_50)">
<path d="M306.33 124.23C303.48 124.23 301.07 123.7 299.08 122.64C297.16 121.51 295.6 120.19 294.41 118.67C293.29 117.08 292.42 115.49 291.83 113.9C291.23 112.31 290.87 111.02 290.74 110.03H289.94V123.23H286.76V93.94H291.92V97.81C291.92 98.94 291.99 100.46 292.12 102.38C292.32 104.3 292.65 106.32 293.11 108.44C293.64 110.56 294.4 112.58 295.39 114.5C296.38 116.35 297.74 117.88 299.46 119.07C301.18 120.26 303.36 120.86 306.01 120.86C309.19 120.86 311.77 119.9 313.75 117.98C315.74 115.99 316.73 113.25 316.73 109.74C316.73 106.7 316.04 103.88 314.65 101.3C313.33 98.72 311.57 96.27 309.39 93.95C307.21 91.57 304.89 89.25 302.44 87C300.06 84.68 297.77 82.37 295.59 80.05C293.41 77.67 291.62 75.15 290.23 72.5C288.91 69.79 288.25 66.87 288.25 63.76C288.25 60.65 288.94 58 290.33 55.82C291.72 53.57 293.54 51.85 295.79 50.66C298.11 49.4 300.66 48.77 303.44 48.77C306.55 48.77 309.06 49.43 310.98 50.76C312.9 52.08 314.39 53.61 315.45 55.33C316.51 57.05 317.24 58.54 317.63 59.8H318.42V49.77H321.6V74.39H316.44V71.21C316.44 67.64 315.91 64.39 314.85 61.48C313.86 58.57 312.4 56.28 310.48 54.63C308.63 52.91 306.34 52.05 303.63 52.05C300.92 52.05 298.76 52.94 297.18 54.73C295.66 56.52 294.9 58.77 294.9 61.48C294.9 64.19 295.56 66.68 296.89 69.12C298.28 71.5 300.07 73.85 302.25 76.17C304.43 78.42 306.72 80.7 309.1 83.02C311.55 85.34 313.87 87.75 316.05 90.27C318.23 92.72 319.99 95.37 321.31 98.21C322.7 100.99 323.39 104.03 323.39 107.34C323.39 110.65 322.6 113.76 321.01 116.28C319.49 118.8 317.44 120.75 314.86 122.14C312.28 123.53 309.43 124.22 306.32 124.22L306.33 124.23Z" fill="#222222"/>
<path d="M275.84 124.23L250.52 65.06V119.86H258.86V123.24H240.79V119.86H247.14V53.14H240.79V49.76H250.92L274.85 105.75V53.13H266.51V49.75H284.58V53.13H278.23V124.21H275.85L275.84 124.23Z" fill="#222222"/>
<path d="M193.72 123.23V119.85H202.06V53.1403H193.72V49.7603H234.52V71.0103H231.74L230.35 60.3903C229.75 55.6203 227.01 53.2403 222.11 53.2403H209.01V81.4403H221.82V68.8303H225V97.4203H221.82V84.8103H209.01V119.76H223.11C227.94 119.76 230.65 117.34 231.25 112.51L232.74 100H235.52V123.23H193.72Z" fill="#222222"/>
<path d="M181.61 124.23C178.83 124.23 176.68 123.3 175.16 121.45C173.7 119.53 172.98 117.05 172.98 114V95.7303C172.98 92.0903 172.28 89.5703 170.89 88.1803C169.57 86.7203 166.89 86.0003 162.85 86.0003H158.09V119.85H166.33V123.23H142.8V119.85H151.14V53.1403H142.8V49.7603H165.63C170.59 49.7603 174.53 50.6903 177.44 52.5403C180.42 54.3903 182.54 56.7103 183.79 59.4903C185.11 62.2703 185.78 65.0203 185.78 67.7303C185.78 72.1603 184.42 75.8003 181.71 78.6503C179 81.5003 175.39 83.3803 170.89 84.3103L170.39 84.4103V85.0103L170.89 85.1103C173.8 85.7103 176.02 86.7603 177.54 88.2903C179.06 89.8103 179.82 92.2903 179.82 95.7403V113.21C179.82 113.87 179.85 114.73 179.92 115.79C180.05 116.78 180.38 117.68 180.91 118.47C181.44 119.2 182.3 119.56 183.49 119.56C185.01 119.56 186 118.96 186.47 117.77C186.93 116.51 187.16 115.19 187.16 113.8V96.6203H190.14V114.09C190.14 115.55 189.88 117.07 189.35 118.66C188.89 120.25 188.03 121.57 186.77 122.63C185.58 123.69 183.86 124.22 181.61 124.22V124.23ZM158.08 82.8303H163.94C168.37 82.8303 171.75 82.0003 174.07 80.3503C176.45 78.6303 177.64 75.5503 177.64 71.1203V65.6603C177.64 61.2303 176.45 58.0203 174.07 56.0303C171.75 53.9803 168.38 52.9503 163.94 52.9503H158.08V82.8303Z" fill="#222222"/>
<path d="M130.08 124.23L104.76 65.06V119.86H113.1V123.24H95.03V119.86H101.38V53.14H95.03V49.76H105.16L129.09 105.75V53.13H120.75V49.75H138.82V53.13H132.47V124.21H130.09L130.08 124.23Z" fill="#222222"/>
<path d="M66.74 124.23C61.51 124.23 57.51 122.74 54.73 119.76C51.95 116.78 50.56 112.48 50.56 106.85V53.1403H44.21V49.7603H64.86V53.1403H57.51V106.95C57.51 111.19 58.44 114.46 60.29 116.78C62.21 119.03 64.96 120.16 68.53 120.16C72.1 120.16 74.82 119.03 76.67 116.78C78.59 114.46 79.55 111.19 79.55 106.95V53.1403H73.69V49.7603H88.78V53.1403H82.92V106.85C82.92 112.48 81.53 116.78 78.75 119.76C76.04 122.74 72.03 124.23 66.74 124.23Z" fill="#222222"/>
<path d="M0 123.23V119.85H8.34V53.1403H0V49.7603H18.76C22.93 49.7603 26.54 50.8203 29.58 52.9403C32.62 54.9903 35.14 57.7703 37.13 61.2803C39.12 64.7903 40.6 68.7303 41.6 73.0903C42.59 77.4603 43.09 81.9303 43.09 86.4903C43.09 91.0503 42.59 95.5203 41.6 99.8903C40.61 104.26 39.12 108.2 37.13 111.7C35.14 115.21 32.63 118.02 29.58 120.14C26.54 122.19 22.93 123.22 18.76 123.22H0V123.23ZM18.76 52.9403H15.29V120.05H18.76C21.67 120.05 24.32 119.36 26.7 117.97C29.15 116.58 31.1 114.56 32.56 111.91C34.02 109.2 34.74 105.92 34.74 102.08V70.9103C34.74 67.0003 34.01 63.7303 32.56 61.0803C31.1 58.4303 29.15 56.4103 26.7 55.0203C24.32 53.6303 21.67 52.9403 18.76 52.9403Z" fill="#222222"/>
<path d="M116.29 0.200195H124.79V1.4702H121.31V11.3402H119.8V1.4702H116.3V0.200195H116.29Z" fill="#D34141"/>
<path d="M130.97 6.0802C131.36 6.1802 131.69 6.3702 131.96 6.6402C132.23 6.9102 132.57 7.4702 132.98 8.2902L134.49 11.3302H132.87L131.54 8.5202C131.16 7.7202 130.81 7.2002 130.51 6.9702C130.21 6.7402 129.81 6.6202 129.31 6.6202H127.87V11.3302H126.36V0.200195H129.46C130.68 0.200195 131.62 0.480195 132.27 1.0302C132.92 1.5802 133.25 2.3802 133.25 3.4202C133.25 4.1602 133.05 4.7602 132.65 5.2202C132.25 5.6802 131.69 5.9702 130.96 6.0702L130.97 6.0802ZM127.89 1.4402V5.3902H129.54C130.26 5.3902 130.8 5.2302 131.15 4.9102C131.5 4.5902 131.68 4.0902 131.68 3.4302C131.68 2.7702 131.49 2.3002 131.12 1.9602C130.75 1.6202 130.2 1.4502 129.48 1.4502H127.89V1.4402Z" fill="#D34141"/>
<path d="M142.61 5.78C142.61 7.72 142.3 9.17 141.69 10.12C141.08 11.07 140.14 11.55 138.88 11.55C137.62 11.55 136.69 11.08 136.08 10.13C135.47 9.18 135.16 7.73 135.16 5.78C135.16 3.83 135.47 2.39 136.08 1.43C136.69 0.47 137.63 0 138.88 0C140.13 0 141.07 0.48 141.69 1.43C142.31 2.38 142.61 3.83 142.61 5.78ZM141.03 5.78C141.03 4.14 140.86 2.98 140.53 2.27C140.2 1.56 139.64 1.22 138.88 1.22C138.12 1.22 137.57 1.57 137.24 2.27C136.91 2.97 136.74 4.14 136.74 5.78C136.74 7.42 136.91 8.58 137.24 9.28C137.57 9.98 138.12 10.33 138.88 10.33C139.64 10.33 140.2 9.98 140.53 9.28C140.86 8.58 141.03 7.41 141.03 5.78Z" fill="#D34141"/>
<path d="M144.11 0.240234H146.17L150.53 9.38023V0.240234H152.13V11.3402H150.07L145.71 2.20023V11.3402H144.11V0.240234Z" fill="#D34141"/>
<path d="M156.58 0.200195C158.28 0.200195 159.53 0.650195 160.34 1.5602C161.15 2.4702 161.55 3.8702 161.55 5.7802C161.55 7.6902 161.15 9.0802 160.34 9.9802C159.53 10.8802 158.28 11.3302 156.58 11.3302H154.32V0.200195H156.58ZM156.55 10.1002C157.82 10.1002 158.7 9.7902 159.21 9.1602C159.72 8.5302 159.96 7.4102 159.96 5.7802C159.96 4.1502 159.71 3.0002 159.21 2.3802C158.71 1.7602 157.82 1.4402 156.55 1.4402H155.83V10.1002H156.55Z" fill="#D34141"/>
<path d="M163.47 0.200195H164.98V4.4702H169.1V0.200195H170.61V11.3402H169.1V5.7402H164.98V11.3402H163.47V0.200195Z" fill="#D34141"/>
<path d="M173.02 0.200195H179.63V1.4702H174.53V4.4702H179.41V5.7402H174.53V10.0702H179.77V11.3402H173.02V0.200195Z" fill="#D34141"/>
<path d="M181.89 0.200195H188.07V1.4702H185.74V10.0702H188.07V11.3402H181.89V10.0702H184.22V1.4702H181.89V0.200195Z" fill="#D34141"/>
<path d="M189.84 0.240234H191.85L193.77 5.89023L195.71 0.240234H197.73V11.3402H196.34V1.53023L194.36 7.38023H193.22L191.23 1.53023V11.3402H189.84V0.240234Z" fill="#D34141"/>
<path d="M96.8 18.53C98.5 18.53 99.75 18.98 100.56 19.89C101.37 20.8 101.77 22.2 101.77 24.11C101.77 26.02 101.37 27.41 100.56 28.31C99.75 29.21 98.5 29.66 96.8 29.66H94.54V18.52H96.8V18.53ZM96.77 28.43C98.04 28.43 98.92 28.12 99.43 27.49C99.94 26.86 100.18 25.74 100.18 24.11C100.18 22.48 99.93 21.33 99.43 20.71C98.93 20.09 98.04 19.77 96.77 19.77H96.05V28.43H96.77Z" fill="#D34141"/>
<path d="M106.08 18.5298H107.91L111.32 29.6698H109.76L108.94 26.7698H105.04L104.23 29.6698H102.67L106.08 18.5298ZM106.99 19.8598L105.4 25.5598H108.58L106.99 19.8598Z" fill="#D34141"/>
<path d="M112.47 18.5698H114.48L116.4 24.2198L118.34 18.5698H120.36V29.6698H118.97V19.8598L116.99 25.7098H115.85L113.86 19.8598V29.6698H112.47V18.5698Z" fill="#D34141"/>
<path d="M122.76 18.5298H126.01C127.25 18.5298 128.2 18.8098 128.84 19.3798C129.48 19.9498 129.8 20.7698 129.8 21.8598C129.8 22.9498 129.48 23.7898 128.84 24.3498C128.2 24.9098 127.26 25.1898 126.01 25.1898H124.26V29.6698H122.75V18.5298H122.76ZM124.27 19.7698V23.9498H126.02C126.72 23.9498 127.26 23.7698 127.65 23.3998C128.04 23.0298 128.24 22.5198 128.24 21.8598C128.24 21.1998 128.05 20.6898 127.66 20.3198C127.27 19.9498 126.73 19.7698 126.03 19.7698H124.28H124.27Z" fill="#D34141"/>
<path d="M131.9 18.5298H138.46V19.7998H133.42V22.7798H137.99V24.0498H133.42V29.6698H131.91V18.5298H131.9Z" fill="#D34141"/>
<path d="M139.2 29.21V27.45C139.65 27.85 140.12 28.15 140.6 28.36C141.08 28.57 141.58 28.66 142.1 28.66C142.81 28.66 143.31 28.47 143.59 28.1C143.87 27.73 144.01 27.04 144.01 26.03V19.79H141.17V18.52H145.52V26.02C145.52 27.42 145.26 28.41 144.73 29C144.2 29.59 143.33 29.87 142.1 29.87C141.62 29.87 141.15 29.82 140.68 29.71C140.21 29.6 139.72 29.43 139.2 29.2V29.21Z" fill="#D34141"/>
<path d="M155.77 18.5298V19.7998H153.25V23.0998H155.54V24.3698H153.25V28.4098H155.91V29.6798H151.86V26.8198H149.23L148.48 29.6798H147.11L150.17 18.5398H155.77V18.5298ZM151.07 19.7998L149.56 25.5598H151.86V19.7998H151.06H151.07Z" fill="#D34141"/>
<path d="M162.13 24.41C162.52 24.51 162.85 24.7 163.12 24.97C163.39 25.24 163.73 25.8 164.14 26.62L165.65 29.66H164.03L162.7 26.85C162.32 26.05 161.97 25.53 161.67 25.3C161.37 25.07 160.97 24.95 160.47 24.95H159.03V29.66H157.52V18.52H160.62C161.84 18.52 162.78 18.8 163.43 19.35C164.08 19.9 164.41 20.7 164.41 21.74C164.41 22.48 164.21 23.08 163.81 23.54C163.41 24 162.85 24.29 162.12 24.39L162.13 24.41ZM159.04 19.77V23.72H160.69C161.41 23.72 161.95 23.56 162.3 23.24C162.65 22.92 162.83 22.42 162.83 21.76C162.83 21.1 162.64 20.63 162.27 20.29C161.9 19.95 161.35 19.78 160.63 19.78H159.04V19.77Z" fill="#D34141"/>
<path d="M171.68 24.41C172.07 24.51 172.4 24.7 172.67 24.97C172.94 25.24 173.28 25.8 173.69 26.62L175.2 29.66H173.58L172.25 26.85C171.87 26.05 171.52 25.53 171.22 25.3C170.92 25.07 170.52 24.95 170.02 24.95H168.58V29.66H167.07V18.52H170.17C171.39 18.52 172.33 18.8 172.98 19.35C173.63 19.9 173.96 20.7 173.96 21.74C173.96 22.48 173.76 23.08 173.36 23.54C172.96 24 172.4 24.29 171.67 24.39L171.68 24.41ZM168.59 19.77V23.72H170.24C170.96 23.72 171.5 23.56 171.85 23.24C172.2 22.92 172.38 22.42 172.38 21.76C172.38 21.1 172.19 20.63 171.82 20.29C171.45 19.95 170.9 19.78 170.18 19.78H168.59V19.77Z" fill="#D34141"/>
<path d="M176.82 18.5298H183.43V19.7998H178.33V22.7998H183.21V24.0698H178.33V28.3998H183.57V29.6698H176.82V18.5298Z" fill="#D34141"/>
<path d="M185.01 18.5698H187.07L191.43 27.7098V18.5698H193.03V29.6698H190.97L186.61 20.5298V29.6698H185.01V18.5698Z" fill="#D34141"/>
<path d="M201.51 18.9098V20.4398C201.05 20.1498 200.59 19.9298 200.13 19.7798C199.67 19.6298 199.21 19.5598 198.74 19.5598C198.03 19.5598 197.47 19.7298 197.05 20.0598C196.63 20.3898 196.43 20.8398 196.43 21.3998C196.43 21.8898 196.57 22.2698 196.84 22.5298C197.11 22.7898 197.62 22.9998 198.36 23.1798L199.15 23.3598C200.19 23.5998 200.95 23.9898 201.43 24.5098C201.91 25.0298 202.15 25.7398 202.15 26.6398C202.15 27.6998 201.82 28.5098 201.17 29.0598C200.52 29.6098 199.56 29.8998 198.31 29.8998C197.79 29.8998 197.26 29.8398 196.74 29.7298C196.22 29.6198 195.68 29.4498 195.15 29.2298V27.6298C195.72 27.9898 196.26 28.2598 196.77 28.4298C197.28 28.5998 197.79 28.6798 198.31 28.6798C199.07 28.6798 199.66 28.5098 200.09 28.1698C200.52 27.8298 200.72 27.3498 200.72 26.7398C200.72 26.1798 200.57 25.7598 200.28 25.4598C199.99 25.1598 199.48 24.9398 198.76 24.7798L197.95 24.5898C196.92 24.3598 196.16 23.9998 195.7 23.5298C195.24 23.0598 195 22.4198 195 21.6298C195 20.6398 195.33 19.8398 196 19.2398C196.67 18.6398 197.56 18.3398 198.67 18.3398C199.1 18.3398 199.55 18.3898 200.02 18.4898C200.49 18.5898 200.99 18.7298 201.51 18.9298V18.9098Z" fill="#D34141"/>
<path d="M204.27 18.5298H210.88V19.7998H205.78V22.7998H210.66V24.0698H205.78V28.3998H211.02V29.6698H204.27V18.5298Z" fill="#D34141"/>
<path d="M217.52 24.41C217.91 24.51 218.24 24.7 218.51 24.97C218.78 25.24 219.12 25.8 219.53 26.62L221.04 29.66H219.42L218.09 26.85C217.71 26.05 217.36 25.53 217.06 25.3C216.76 25.07 216.36 24.95 215.86 24.95H214.42V29.66H212.91V18.52H216.01C217.23 18.52 218.17 18.8 218.82 19.35C219.47 19.9 219.8 20.7 219.8 21.74C219.8 22.48 219.6 23.08 219.2 23.54C218.8 24 218.24 24.29 217.51 24.39L217.52 24.41ZM214.44 19.77V23.72H216.09C216.81 23.72 217.35 23.56 217.7 23.24C218.05 22.92 218.23 22.42 218.23 21.76C218.23 21.1 218.04 20.63 217.67 20.29C217.3 19.95 216.75 19.78 216.03 19.78H214.44V19.77Z" fill="#D34141"/>
<path d="M222.68 18.5298H228.86V19.7998H226.53V28.3998H228.86V29.6698H222.68V28.3998H225.01V19.7998H222.68V18.5298Z" fill="#D34141"/>
<path d="M119.85 145.3H126.22V146.52H121.3V149.41H126V150.63H121.3V154.81H126.35V156.03H119.84V145.3H119.85Z" fill="#D34141"/>
<path d="M127.78 145.3H135.97V146.52H132.61V156.03H131.15V146.52H127.78V145.3Z" fill="#D34141"/>
<path d="M138.99 145.3H140.75L144.04 156.03H142.54L141.75 153.23H137.99L137.21 156.03H135.71L139 145.3H138.99ZM139.86 146.58L138.33 152.07H141.39L139.86 146.58Z" fill="#D34141"/>
<path d="M145.6 145.3H148.78C149.88 145.3 150.72 145.54 151.32 146.01C151.92 146.48 152.21 147.16 152.21 148.02C152.21 148.48 152.05 148.91 151.74 149.29C151.43 149.67 150.96 149.91 150.33 150C151.03 150.11 151.59 150.41 151.99 150.9C152.39 151.39 152.59 152.12 152.59 153.08C152.59 154.04 152.27 154.79 151.63 155.28C150.99 155.77 150.04 156.02 148.78 156.02H145.6V145.29V145.3ZM147.06 146.5V149.45H148.75C149.45 149.45 149.96 149.32 150.27 149.05C150.58 148.78 150.74 148.44 150.74 148.04C150.74 147.5 150.59 147.11 150.28 146.87C149.97 146.63 149.46 146.51 148.75 146.51H147.06V146.5ZM147.06 150.62V154.84H148.78C149.62 154.84 150.22 154.69 150.58 154.4C150.94 154.11 151.12 153.62 151.12 152.94C151.12 152.05 150.93 151.44 150.55 151.11C150.17 150.78 149.58 150.62 148.77 150.62H147.05H147.06Z" fill="#D34141"/>
<path d="M155.27 153.13H157.8V156.03H155.27V153.13Z" fill="#D34141"/>
<path d="M172.14 154.82H174.4V146.71L171.7 148.01V146.62L174.39 145.34H175.84V154.82H178.07V156.03H172.15V154.82H172.14Z" fill="#D34141"/>
<path d="M180.26 155.81V154.47C180.56 154.65 180.88 154.78 181.22 154.88C181.56 154.98 181.91 155.02 182.28 155.02C183.2 155.02 183.9 154.67 184.37 153.98C184.84 153.29 185.08 152.27 185.08 150.92C184.85 151.4 184.54 151.77 184.13 152.02C183.72 152.27 183.26 152.4 182.73 152.4C181.69 152.4 180.89 152.08 180.33 151.44C179.77 150.8 179.48 149.9 179.48 148.73C179.48 147.56 179.77 146.68 180.35 146.04C180.93 145.4 181.76 145.09 182.82 145.09C184.07 145.09 184.98 145.54 185.56 146.43C186.14 147.32 186.43 148.74 186.43 150.66C186.43 152.47 186.08 153.85 185.38 154.8C184.68 155.75 183.67 156.23 182.34 156.23C181.99 156.23 181.64 156.19 181.28 156.12C180.92 156.05 180.58 155.94 180.25 155.8L180.26 155.81ZM182.85 151.28C183.47 151.28 183.95 151.06 184.31 150.61C184.67 150.16 184.84 149.55 184.84 148.76C184.84 147.97 184.66 147.36 184.31 146.91C183.96 146.46 183.47 146.24 182.85 146.24C182.23 146.24 181.72 146.45 181.4 146.88C181.08 147.31 180.91 147.93 180.91 148.76C180.91 149.59 181.07 150.22 181.4 150.64C181.73 151.06 182.21 151.27 182.86 151.27L182.85 151.28Z" fill="#D34141"/>
<path d="M188.52 145.3H193.95V146.52H189.84V149.16C190.05 149.08 190.25 149.03 190.46 148.99C190.67 148.95 190.88 148.94 191.09 148.94C192.2 148.94 193.08 149.27 193.74 149.92C194.4 150.57 194.72 151.47 194.72 152.59C194.72 153.71 194.38 154.61 193.7 155.26C193.02 155.91 192.08 156.24 190.9 156.24C190.33 156.24 189.81 156.2 189.34 156.12C188.87 156.04 188.44 155.93 188.07 155.77V154.3C188.51 154.54 188.95 154.72 189.4 154.84C189.85 154.96 190.3 155.02 190.77 155.02C191.57 155.02 192.19 154.81 192.62 154.39C193.05 153.97 193.27 153.37 193.27 152.59C193.27 151.81 193.05 151.23 192.6 150.8C192.15 150.37 191.53 150.16 190.73 150.16C190.34 150.16 189.96 150.2 189.59 150.29C189.22 150.38 188.87 150.51 188.53 150.69V145.3H188.52Z" fill="#D34141"/>
<path d="M202.77 145.54V146.88C202.47 146.7 202.15 146.57 201.81 146.47C201.47 146.37 201.12 146.33 200.75 146.33C199.83 146.33 199.13 146.68 198.66 147.37C198.19 148.06 197.95 149.08 197.95 150.43C198.18 149.95 198.5 149.58 198.91 149.33C199.32 149.08 199.78 148.95 200.31 148.95C201.35 148.95 202.15 149.27 202.71 149.9C203.27 150.53 203.56 151.43 203.56 152.6C203.56 153.77 203.27 154.66 202.68 155.3C202.09 155.94 201.27 156.26 200.21 156.26C198.96 156.26 198.05 155.81 197.47 154.92C196.89 154.03 196.6 152.62 196.6 150.7C196.6 148.89 196.95 147.51 197.65 146.56C198.35 145.61 199.36 145.13 200.68 145.13C201.03 145.13 201.39 145.17 201.74 145.24C202.09 145.31 202.44 145.42 202.77 145.56V145.54ZM200.18 150.08C199.56 150.08 199.08 150.3 198.72 150.75C198.36 151.2 198.19 151.81 198.19 152.6C198.19 153.39 198.37 154 198.72 154.45C199.07 154.9 199.56 155.12 200.18 155.12C200.8 155.12 201.31 154.91 201.63 154.48C201.95 154.05 202.12 153.43 202.12 152.6C202.12 151.77 201.96 151.14 201.63 150.72C201.3 150.3 200.82 150.09 200.18 150.09V150.08Z" fill="#D34141"/>
</g>
<defs>
<clipPath id="clip0_126_50">
<rect width="323.4" height="156.25" fill="white"/>
</clipPath>
</defs>
</svg>
