<svg width="324" height="76" viewBox="0 0 324 76" fill="none" xmlns="http://www.w3.org/2000/svg">
<path d="M306.33 75.46C303.48 75.46 301.07 74.93 299.08 73.87C297.16 72.74 295.6 71.42 294.41 69.9C293.29 68.31 292.42 66.72 291.83 65.13C291.23 63.54 290.87 62.25 290.74 61.26H289.94V74.46H286.76V45.17H291.92V49.04C291.92 50.17 291.99 51.69 292.12 53.61C292.32 55.53 292.65 57.55 293.11 59.67C293.64 61.79 294.4 63.81 295.39 65.73C296.38 67.58 297.74 69.11 299.46 70.3C301.18 71.49 303.36 72.09 306.01 72.09C309.19 72.09 311.77 71.13 313.75 69.21C315.74 67.22 316.73 64.48 316.73 60.97C316.73 57.93 316.04 55.11 314.65 52.53C313.33 49.95 311.57 47.5 309.39 45.18C307.21 42.8 304.89 40.48 302.44 38.23C300.06 35.91 297.77 33.6 295.59 31.28C293.41 28.9 291.62 26.38 290.23 23.73C288.91 21.02 288.25 18.1 288.25 14.99C288.25 11.88 288.94 9.23 290.33 7.05C291.72 4.8 293.54 3.08 295.79 1.89C298.11 0.629999 300.66 0 303.44 0C306.55 0 309.06 0.659998 310.98 1.99C312.9 3.31 314.39 4.84 315.45 6.56C316.51 8.28 317.24 9.77 317.63 11.03H318.42V1H321.6V25.62H316.44V22.44C316.44 18.87 315.91 15.62 314.85 12.71C313.86 9.8 312.4 7.51 310.48 5.86C308.63 4.14 306.34 3.28 303.63 3.28C300.92 3.28 298.76 4.17 297.18 5.96C295.66 7.75 294.9 10 294.9 12.71C294.9 15.42 295.56 17.91 296.89 20.35C298.28 22.73 300.07 25.08 302.25 27.4C304.43 29.65 306.72 31.93 309.1 34.25C311.55 36.57 313.87 38.98 316.05 41.5C318.23 43.95 319.99 46.6 321.31 49.44C322.7 52.22 323.39 55.26 323.39 58.57C323.39 61.88 322.6 64.99 321.01 67.51C319.49 70.03 317.44 71.98 314.86 73.37C312.28 74.76 309.43 75.45 306.32 75.45L306.33 75.46Z" fill="#222222"/>
<path d="M275.84 75.46L250.52 16.29V71.09H258.86V74.47H240.79V71.09H247.14V4.36998H240.79V0.989979H250.92L274.85 56.98V4.35998H266.51V0.97998H284.58V4.35998H278.23V75.44H275.85L275.84 75.46Z" fill="#222222"/>
<path d="M193.72 74.4602V71.0802H202.06V4.37024H193.72V0.990234H234.52V22.2402H231.74L230.35 11.6202C229.75 6.85024 227.01 4.47024 222.11 4.47024H209.01V32.6702H221.82V20.0602H225V48.6502H221.82V36.0402H209.01V70.9902H223.11C227.94 70.9902 230.65 68.5702 231.25 63.7402L232.74 51.2302H235.52V74.4602H193.72Z" fill="#222222"/>
<path d="M181.61 75.4602C178.83 75.4602 176.68 74.5302 175.16 72.6802C173.7 70.7602 172.98 68.2802 172.98 65.2302V46.9602C172.98 43.3202 172.28 40.8002 170.89 39.4102C169.57 37.9502 166.89 37.2302 162.85 37.2302H158.09V71.0802H166.33V74.4602H142.8V71.0802H151.14V4.37024H142.8V0.990234H165.63C170.59 0.990234 174.53 1.92024 177.44 3.77024C180.42 5.62024 182.54 7.94024 183.79 10.7202C185.11 13.5002 185.78 16.2502 185.78 18.9602C185.78 23.3902 184.42 27.0302 181.71 29.8802C179 32.7302 175.39 34.6102 170.89 35.5402L170.39 35.6402V36.2402L170.89 36.3402C173.8 36.9402 176.02 37.9902 177.54 39.5202C179.06 41.0402 179.82 43.5202 179.82 46.9702V64.4402C179.82 65.1002 179.85 65.9602 179.92 67.0202C180.05 68.0102 180.38 68.9102 180.91 69.7002C181.44 70.4302 182.3 70.7902 183.49 70.7902C185.01 70.7902 186 70.1902 186.47 69.0002C186.93 67.7402 187.16 66.4202 187.16 65.0302V47.8502H190.14V65.3202C190.14 66.7802 189.88 68.3002 189.35 69.8902C188.89 71.4802 188.03 72.8002 186.77 73.8602C185.58 74.9202 183.86 75.4502 181.61 75.4502V75.4602ZM158.08 34.0602H163.94C168.37 34.0602 171.75 33.2302 174.07 31.5802C176.45 29.8602 177.64 26.7802 177.64 22.3502V16.8902C177.64 12.4602 176.45 9.25023 174.07 7.26023C171.75 5.21023 168.38 4.18024 163.94 4.18024H158.08V34.0602Z" fill="#222222"/>
<path d="M130.08 75.46L104.76 16.29V71.09H113.1V74.47H95.0298V71.09H101.38V4.36998H95.0298V0.989979H105.16L129.09 56.98V4.35998H120.75V0.97998H138.82V4.35998H132.47V75.44H130.09L130.08 75.46Z" fill="#222222"/>
<path d="M66.74 75.4602C61.51 75.4602 57.51 73.9702 54.73 70.9902C51.95 68.0102 50.56 63.7102 50.56 58.0802V4.37024H44.21V0.990234H64.86V4.37024H57.51V58.1802C57.51 62.4202 58.44 65.6902 60.29 68.0102C62.21 70.2602 64.96 71.3902 68.53 71.3902C72.1 71.3902 74.82 70.2602 76.67 68.0102C78.59 65.6902 79.55 62.4202 79.55 58.1802V4.37024H73.69V0.990234H88.78V4.37024H82.92V58.0802C82.92 63.7102 81.53 68.0102 78.75 70.9902C76.04 73.9702 72.03 75.4602 66.74 75.4602Z" fill="#222222"/>
<path d="M0 74.4602V71.0802H8.34V4.37024H0V0.990234H18.76C22.93 0.990234 26.54 2.05023 29.58 4.17023C32.62 6.22023 35.14 9.00023 37.13 12.5102C39.12 16.0202 40.6 19.9602 41.6 24.3202C42.59 28.6902 43.09 33.1602 43.09 37.7202C43.09 42.2802 42.59 46.7502 41.6 51.1202C40.61 55.4902 39.12 59.4302 37.13 62.9302C35.14 66.4402 32.63 69.2502 29.58 71.3702C26.54 73.4202 22.93 74.4502 18.76 74.4502H0V74.4602ZM18.76 4.17023H15.29V71.2802H18.76C21.67 71.2802 24.32 70.5902 26.7 69.2002C29.15 67.8102 31.1 65.7902 32.56 63.1402C34.02 60.4302 34.74 57.1502 34.74 53.3102V22.1402C34.74 18.2302 34.01 14.9602 32.56 12.3102C31.1 9.66024 29.15 7.64024 26.7 6.25024C24.32 4.86024 21.67 4.17023 18.76 4.17023Z" fill="#222222"/>
</svg>
